<?xml version="1.0" standalone="no"?>
<!DOCTYPE svg PUBLIC "-//W3C//DTD SVG 20010904//EN"
 "http://www.w3.org/TR/2001/REC-SVG-20010904/DTD/svg10.dtd">
<svg version="1.0" xmlns="http://www.w3.org/2000/svg"
 width="474.000000pt" height="474.000000pt" viewBox="0 0 474.000000 474.000000"
 preserveAspectRatio="xMidYMid meet">
<metadata>
Created by potrace 1.14, written by Peter Selinger 2001-2017
</metadata>
<g transform="translate(0.000000,474.000000) scale(0.100000,-0.100000)"
fill="#000000" stroke="none">
<path d="M0 3426 c0 -1189 2 -1314 16 -1320 39 -15 51 -7 57 39 4 24 16 65 28
90 20 43 20 47 5 85 -25 64 -21 88 24 132 42 39 72 48 87 26 4 -7 10 -35 13
-63 5 -48 6 -49 44 -57 21 -5 50 -17 65 -27 l27 -19 18 44 c26 63 49 57 93
-22 45 -83 47 -128 4 -166 l-32 -28 12 -66 c6 -37 9 -88 6 -115 -6 -46 -5 -48
28 -68 19 -11 37 -31 40 -44 11 -44 -40 -189 -71 -201 -10 -4 -24 10 -43 39
l-28 44 -29 -30 c-15 -16 -42 -33 -59 -37 -29 -8 -30 -11 -35 -73 -4 -57 -7
-64 -28 -67 -27 -4 -88 32 -103 61 -9 15 -8 34 1 72 12 51 12 54 -23 126 -19
41 -37 81 -40 90 -5 14 -11 15 -41 5 l-36 -11 0 -932 0 -933 2370 0 2370 0 0
2370 0 2370 -2370 0 -2370 0 0 -1314z m4360 1284 c0 -5 -2 -10 -4 -10 -3 0 -8
5 -11 10 -3 6 -1 10 4 10 6 0 11 -4 11 -10z m-1456 -250 c14 -5 26 -16 26 -25
0 -13 -5 -13 -35 2 -53 25 -46 44 9 23z m143 -102 c22 -20 31 -48 16 -48 -12
0 -53 43 -53 57 0 19 10 16 37 -9z m113 -175 c0 -5 7 -29 15 -55 11 -38 11
-48 1 -48 -13 0 -48 95 -38 104 8 8 22 7 22 -1z m-2539 -536 c42 -28 47 -54
23 -124 -18 -52 -18 -53 3 -75 12 -13 32 -42 46 -66 l24 -43 26 30 c14 17 33
31 42 31 28 0 71 -136 59 -186 -4 -15 -20 -32 -41 -43 l-35 -18 0 -103 0 -104
32 -11 c47 -16 54 -36 40 -109 -15 -76 -35 -126 -51 -126 -7 0 -26 12 -42 28
-25 23 -31 25 -38 12 -82 -135 -81 -131 -65 -175 23 -59 20 -88 -11 -117 -65
-60 -97 -57 -109 11 -12 72 -10 71 -73 71 l-58 0 -6 -50 c-3 -28 -9 -55 -12
-60 -11 -18 -40 -10 -78 21 -42 34 -46 60 -23 128 15 40 14 41 -20 92 -18 28
-34 57 -34 65 0 21 -10 17 -42 -13 -34 -33 -44 -26 -63 48 -24 88 -20 116 17
139 l33 20 0 96 1 97 -28 11 c-17 6 -31 21 -35 34 -7 30 14 129 34 161 l15 23
28 -27 28 -26 41 77 c42 77 42 77 26 116 -23 59 -19 80 24 122 52 51 73 46 85
-20 l9 -52 56 3 c31 2 59 4 62 4 3 1 9 26 12 56 3 30 8 59 12 65 11 17 50 11
86 -13z m859 -7 c0 -5 -4 -10 -10 -10 -5 0 -10 5 -10 10 0 6 5 10 10 10 6 0
10 -4 10 -10z m1452 -52 c13 -12 55 -142 197 -613 28 -92 36 -134 29 -142 -14
-17 -124 -17 -134 -1 -4 7 -17 46 -29 88 l-21 75 -119 -4 c-66 -2 -121 -5
-123 -6 -2 -1 -12 -38 -24 -81 -12 -44 -26 -82 -32 -86 -6 -4 -32 -8 -58 -8
-44 0 -48 2 -48 25 0 33 197 726 210 739 9 9 63 20 121 25 8 0 22 -5 31 -11z
m-291 -39 c6 -13 8 -39 5 -64 l-7 -42 -80 -9 -80 -9 1 -291 c0 -160 -2 -298
-6 -307 -8 -21 -69 -33 -100 -18 l-24 11 0 298 0 298 -77 -1 -78 0 -3 44 c-2
24 2 49 8 55 6 6 102 21 213 32 111 12 205 22 209 23 4 0 12 -9 19 -20z m-561
-63 c21 -56 180 -641 180 -663 0 -23 -3 -24 -57 -21 l-58 3 -20 78 -19 77 -97
0 c-65 0 -100 -4 -107 -12 -5 -7 -15 -40 -22 -73 -7 -33 -17 -66 -22 -72 -14
-18 -87 -17 -94 1 -3 7 16 94 42 192 26 99 65 251 88 339 46 177 42 172 134
174 36 1 44 -3 52 -23z m-442 -56 c68 -38 105 -114 117 -236 14 -139 -26 -285
-95 -348 -50 -45 -92 -57 -207 -59 l-98 -2 -3 319 c-1 176 2 324 7 329 12 12
137 26 194 22 26 -2 65 -14 85 -25z m2304 -772 c68 -29 81 -48 82 -118 1 -81
-10 -89 -70 -50 -88 55 -161 62 -230 19 -121 -74 -131 -402 -16 -505 60 -53
165 -56 252 -7 27 15 52 25 55 21 11 -11 17 -77 11 -113 -6 -32 -14 -40 -59
-60 -130 -61 -297 -33 -397 66 -144 145 -147 509 -5 667 93 103 246 136 377
80z m666 10 c15 -15 16 -92 2 -119 -10 -18 -23 -19 -165 -19 l-155 0 0 -105 0
-105 129 0 c150 0 154 -2 149 -82 l-3 -53 -137 -3 -138 -3 0 -119 0 -119 33
-5 c17 -3 88 -8 157 -11 80 -4 127 -10 132 -18 4 -7 8 -36 8 -65 0 -38 -4 -54
-16 -59 -29 -11 -437 18 -461 33 l-23 14 0 414 0 413 23 11 c32 16 449 16 465
0z m-3776 -15 c13 -12 18 -30 18 -70 0 -52 1 -53 28 -53 16 0 51 -11 78 -25
27 -14 50 -25 51 -25 1 0 11 20 22 45 23 51 46 58 78 23 35 -39 73 -125 73
-166 0 -34 -5 -43 -35 -63 -34 -24 -35 -25 -27 -74 4 -27 7 -84 6 -127 l0 -76
38 -22 c46 -26 56 -56 39 -119 -17 -63 -63 -145 -83 -149 -11 -2 -27 12 -46
43 l-28 46 -20 -22 c-22 -24 -86 -59 -108 -59 -12 0 -16 -15 -18 -66 -4 -94
-35 -107 -118 -51 -48 32 -58 65 -38 127 l16 50 -34 51 c-18 28 -39 68 -45 90
-13 43 -16 44 -54 27 -21 -9 -29 -9 -41 4 -23 23 -38 165 -24 218 11 42 12 42
50 36 38 -6 39 -5 49 31 6 21 11 42 11 46 0 5 11 32 25 61 l25 54 -20 47 c-11
25 -20 55 -20 65 0 26 46 77 89 100 44 24 41 23 63 3z m2526 -377 c2 -294 -1
-392 -10 -403 -18 -23 -132 -13 -157 12 -21 22 -187 385 -260 570 -4 10 -6
-101 -3 -247 3 -146 2 -278 -2 -292 -6 -24 -11 -26 -55 -26 -29 0 -53 6 -60
14 -9 10 -11 112 -9 375 3 309 5 363 18 371 8 5 45 10 82 10 91 0 76 23 249
-370 33 -74 64 -144 69 -155 5 -12 9 81 9 246 1 197 4 268 13 277 8 8 33 12
63 10 l50 -3 3 -389z m-1780 357 c21 -15 28 -30 30 -63 4 -57 -7 -66 -49 -41
-40 25 -91 27 -113 5 -9 -9 -16 -32 -16 -54 0 -42 -2 -39 110 -123 84 -62 113
-140 90 -242 -27 -119 -129 -175 -237 -130 -62 26 -73 42 -73 102 0 29 3 53 8
53 4 0 27 -14 51 -30 54 -37 94 -38 126 -5 28 28 32 70 10 102 -8 12 -44 42
-79 67 -86 62 -110 108 -104 211 4 82 19 113 79 153 28 20 43 23 87 20 32 -3
64 -13 80 -25z m437 4 c40 -22 40 -23 43 -90 2 -37 -1 -67 -5 -67 -4 0 -26 14
-47 30 -30 22 -50 30 -82 30 -87 0 -134 -82 -134 -234 0 -200 87 -289 214
-221 54 29 66 24 66 -27 0 -70 -58 -117 -144 -118 -161 -1 -250 127 -250 360
0 173 49 290 142 340 53 28 145 26 197 -3z m209 17 c14 -5 16 -47 16 -365 l0
-359 -39 0 c-76 0 -71 -28 -71 365 0 273 3 354 13 358 18 8 63 8 81 1z m481
-54 l0 -55 -117 -3 -118 -3 0 -89 0 -89 97 -3 97 -3 7 -29 c5 -16 5 -42 2 -57
l-5 -29 -100 0 -99 0 3 -102 3 -103 107 -7 c59 -3 112 -9 118 -13 13 -8 13
-102 0 -110 -14 -9 -323 16 -337 27 -18 15 -19 698 -1 716 9 9 58 12 178 10
l165 -3 0 -55z m-1755 -930 c0 -10 -4 -22 -10 -25 -6 -4 -10 7 -10 25 0 18 4
29 10 25 6 -3 10 -15 10 -25z m2953 -367 c27 -39 54 -129 43 -140 -13 -13 -56
17 -56 39 0 13 -12 40 -26 61 -16 24 -23 45 -19 57 10 30 29 24 58 -17z m-523
-64 c0 -7 -98 5 -106 14 -4 3 -3 22 0 42 l7 35 49 -42 c28 -24 50 -46 50 -49z
m17 -31 c-3 -7 -13 -33 -22 -58 -10 -25 -22 -49 -26 -54 -10 -11 -59 31 -59
48 1 11 89 76 104 76 4 0 6 -6 3 -12z m273 -50 c7 -24 18 -53 26 -66 14 -22
11 -62 -5 -62 -12 0 -69 104 -71 130 -3 37 -2 40 20 40 14 0 22 -11 30 -42z
m300 -28 c13 0 -7 -72 -28 -99 -11 -14 -25 -25 -31 -23 -6 1 -11 -4 -11 -10 0
-7 -5 -5 -11 6 -9 14 -7 24 10 47 12 16 24 43 28 59 4 22 10 29 20 26 8 -4 18
-6 23 -6z m-171 -120 c30 0 43 -5 51 -20 14 -25 7 -36 -25 -44 -26 -7 -88 6
-114 23 -12 8 -13 14 -3 36 10 21 15 24 31 15 11 -5 38 -10 60 -10z m-1145
-182 c37 -16 70 -90 63 -136 -7 -40 -46 -82 -76 -82 -26 0 -66 35 -81 70 -18
44 -7 120 20 142 26 21 40 22 74 6z m239 -52 c30 -28 51 -97 42 -135 -17 -67
-81 -91 -129 -46 -46 43 -59 110 -31 165 24 47 77 54 118 16z m235 -50 c34
-39 47 -82 37 -125 -23 -104 -146 -90 -176 21 -30 114 66 187 139 104z m-461
-161 c71 -50 59 -205 -15 -205 -56 0 -102 57 -102 128 0 75 62 116 117 77z
m228 -59 c50 -50 54 -150 7 -186 -31 -25 -53 -25 -85 0 -54 43 -71 147 -30
192 24 26 78 23 108 -6z m1231 -43 c-2 -3 -13 0 -23 5 -27 14 -73 23 -72 15 4
-22 -2 -25 -15 -7 -13 17 -13 20 2 25 16 6 117 -30 108 -38z m-1007 1 c79 -66
59 -207 -29 -207 -55 0 -100 61 -100 136 0 88 66 125 129 71z m908 -25 c-9 -6
-14 -16 -11 -22 5 -8 2 -7 -7 1 -12 11 -12 14 1 22 8 5 20 10 25 10 6 -1 2 -5
-8 -11z"/>
<path d="M546 3623 c-2 -10 -8 -42 -11 -70 -7 -52 -7 -53 -38 -50 -32 2 -32 2
-35 -51 -3 -55 -3 -55 49 -66 15 -3 41 -19 59 -36 18 -17 34 -29 35 -28 1 2
12 20 24 41 l23 38 -27 29 -27 29 21 62 c11 35 21 67 21 71 0 10 -61 48 -77
48 -6 0 -14 -8 -17 -17z"/>
<path d="M302 3577 l-33 -34 22 -56 21 -56 -21 -29 c-28 -40 -27 -46 15 -110
1 -2 19 14 38 36 20 22 50 45 66 52 28 12 30 16 30 67 l0 55 -29 -7 c-29 -6
-30 -5 -36 42 -12 87 -22 93 -73 40z"/>
<path d="M642 3332 c-22 -40 -21 -55 12 -152 9 -25 18 -61 21 -80 5 -34 7 -36
39 -32 l34 4 -5 53 -6 53 43 22 c43 22 43 22 37 68 -3 26 -11 60 -17 76 l-11
29 -39 -38 c-22 -21 -41 -37 -44 -34 -2 2 -11 19 -20 37 -9 17 -18 32 -19 32
-2 0 -13 -17 -25 -38z"/>
<path d="M384 3332 c-110 -80 -155 -311 -93 -478 33 -90 108 -158 157 -141 4
1 6 5 5 9 -1 3 18 16 43 29 72 34 134 150 134 251 0 22 5 38 11 38 19 0 5 129
-21 188 -15 34 -26 49 -31 41 -5 -9 -16 -4 -38 19 -57 56 -133 51 -191 -14
-18 -21 -30 -29 -30 -20 0 23 66 84 103 95 22 6 26 9 11 10 -12 1 -39 -12 -60
-27z"/>
<path d="M490 3353 c8 -3 24 -10 35 -15 20 -9 20 -9 1 6 -11 9 -27 16 -35 15
-14 0 -14 -1 -1 -6z"/>
<path d="M231 3295 c-15 -42 -20 -43 -51 -10 -13 14 -27 25 -31 25 -9 0 -26
-52 -35 -106 -6 -40 -5 -40 34 -56 l39 -15 -5 -52 -5 -51 32 0 c24 0 32 5 35
23 2 12 9 51 16 87 6 35 18 77 26 93 14 26 13 31 -6 62 -12 19 -25 35 -29 35
-4 0 -13 -16 -20 -35z"/>
<path d="M676 3008 c-3 -13 -6 -33 -6 -46 0 -13 -11 -57 -25 -98 l-25 -75 25
-36 24 -37 17 40 c9 21 18 41 20 43 2 3 20 -10 38 -28 19 -18 39 -30 44 -27
13 8 36 105 31 131 -2 10 -19 23 -39 30 -35 12 -35 13 -34 69 l1 56 -32 0
c-25 0 -34 -5 -39 -22z"/>
<path d="M183 2951 l6 -51 -39 -20 c-45 -23 -44 -23 -29 -88 17 -70 31 -81 58
-43 12 17 26 31 30 31 4 0 15 -16 25 -37 l17 -36 23 38 23 38 -19 50 c-11 28
-22 75 -26 106 -7 55 -8 56 -41 59 l-34 3 6 -50z"/>
<path d="M291 2726 c-26 -42 -26 -47 1 -81 21 -27 21 -29 5 -75 -24 -67 -21
-82 16 -107 18 -13 36 -23 39 -23 6 0 10 17 23 93 6 36 8 38 36 32 l29 -7 0
55 c0 54 -1 56 -35 67 -18 6 -47 27 -64 45 l-30 34 -20 -33z"/>
<path d="M578 2737 c-9 -13 -38 -35 -65 -48 -48 -25 -48 -26 -48 -75 0 -49 0
-49 31 -47 29 3 32 0 38 -35 19 -107 21 -109 75 -64 l34 28 -23 61 -22 62 27
34 26 35 -23 36 c-13 20 -25 36 -28 36 -3 -1 -12 -11 -22 -23z"/>
<path d="M2806 3282 c-21 -81 -41 -153 -44 -161 -4 -11 11 -12 84 -6 49 4 90
8 91 9 4 3 -79 291 -86 298 -3 4 -24 -59 -45 -140z"/>
<path d="M1960 3214 l-35 -144 72 0 c62 0 73 3 73 17 0 21 -61 256 -69 265 -3
4 -22 -58 -41 -138z"/>
<path d="M1452 3342 c-9 -7 -12 -59 -10 -228 l3 -219 25 -3 c41 -6 97 17 128
53 81 91 63 343 -28 390 -31 16 -97 20 -118 7z"/>
<path d="M758 2605 c-57 -39 -61 -53 -32 -116 l26 -54 -26 -46 -25 -46 28 -27
28 -27 40 41 c29 29 49 40 71 40 25 0 30 5 36 31 3 17 6 44 6 60 0 25 -4 28
-37 31 -37 3 -38 4 -41 48 -5 99 -14 106 -74 65z"/>
<path d="M1063 2528 c-6 -7 -18 -34 -29 -59 l-18 -47 -33 26 c-19 13 -36 23
-38 20 -3 -2 -8 -26 -11 -52 -6 -42 -4 -50 19 -74 30 -32 66 -107 67 -140 0
-21 4 -23 38 -20 41 3 42 9 28 93 -7 38 -5 41 34 68 22 16 40 34 40 41 0 18
-58 132 -74 145 -10 8 -16 8 -23 -1z"/>
<path d="M844 2330 c-44 -18 -84 -103 -84 -181 0 -58 26 -129 61 -165 82 -85
179 2 179 158 0 75 -24 132 -69 171 -34 28 -51 32 -87 17z"/>
<path d="M687 2293 c-3 -5 -8 -28 -12 -52 -8 -46 -4 -45 -76 -29 -11 2 -15
-14 -17 -82 -3 -108 4 -120 53 -97 20 9 37 17 39 17 2 0 9 -20 15 -44 6 -25
15 -47 19 -50 5 -3 19 8 31 25 21 28 22 34 10 81 -6 29 -9 81 -7 122 5 68 5
72 -23 94 -15 12 -30 19 -32 15z"/>
<path d="M1022 2078 c-7 -40 -23 -79 -42 -106 -29 -41 -30 -45 -19 -90 7 -26
14 -49 16 -51 2 -3 18 10 37 28 l34 33 28 -51 c16 -28 34 -50 39 -48 17 5 57
96 62 140 5 41 4 42 -39 64 l-44 21 4 61 4 61 -34 0 c-34 0 -35 0 -46 -62z"/>
<path d="M751 1945 l-24 -36 31 -38 31 -39 -20 -61 c-24 -70 -19 -84 38 -108
67 -27 73 -22 73 62 l0 75 29 0 c39 0 43 9 30 70 -9 43 -14 50 -30 45 -28 -9
-86 13 -108 41 -10 13 -20 24 -22 24 -2 0 -15 -16 -28 -35z"/>
<path d="M3926 1043 c-6 -14 -5 -15 5 -6 7 7 10 15 7 18 -3 3 -9 -2 -12 -12z"/>
<path d="M3895 1029 c-4 -6 -5 -12 -2 -15 2 -3 7 2 10 11 7 17 1 20 -8 4z"/>
<path d="M2595 787 c-20 -24 -5 -68 28 -80 10 -4 16 -11 12 -17 -3 -5 -1 -19
5 -30 9 -16 15 -18 30 -10 19 10 17 48 -3 61 -5 4 -10 18 -10 33 -1 14 -5 26
-9 26 -5 0 -8 7 -8 15 0 18 -31 19 -45 2z"/>
<path d="M2816 744 c-22 -21 -20 -77 2 -104 15 -19 25 -22 54 -16 l35 6 -7 47
c-5 30 -15 53 -30 65 -27 22 -34 22 -54 2z"/>
<path d="M3040 705 c-10 -12 -10 -24 -2 -53 6 -20 13 -46 14 -57 2 -11 12 -21
24 -23 18 -3 22 4 28 40 4 24 7 51 7 61 0 42 -46 62 -71 32z m44 -31 c3 -8 2
-12 -4 -9 -6 3 -10 10 -10 16 0 14 7 11 14 -7z"/>
<path d="M2633 507 c-38 -15 -46 -22 -50 -48 -3 -21 29 -39 72 -39 21 0 24 4
23 35 -1 20 -5 38 -10 41 -4 3 -6 10 -3 15 7 11 9 11 -32 -4z"/>
<path d="M2804 465 c-24 -37 6 -105 47 -105 10 0 21 -5 25 -11 4 -7 12 5 20
27 11 30 11 45 3 67 -21 50 -69 62 -95 22z"/>
<path d="M3070 443 c0 -4 10 -18 23 -32 l22 -26 -22 19 c-24 20 -32 10 -10
-13 10 -11 10 -13 0 -7 -20 11 -15 -15 5 -30 15 -12 15 -13 1 -14 -16 0 -43
45 -34 59 2 5 -2 17 -10 27 -13 18 -14 18 -20 -7 -7 -27 23 -96 50 -119 17
-14 38 -3 31 16 -3 8 -1 24 4 36 l9 23 0 -23 c1 -13 5 -21 10 -17 10 6 1 48
-18 82 -10 20 -41 39 -41 26z"/>
<path d="M153 2440 c-50 -30 -56 -49 -31 -109 l22 -51 -21 -44 -22 -44 27 -26
27 -25 28 34 c15 19 42 38 60 43 29 7 32 12 37 55 7 55 6 57 -31 57 -26 0 -28
3 -36 62 -4 34 -12 63 -18 65 -5 1 -24 -6 -42 -17z"/>
<path d="M392 2318 l-22 -52 -23 22 c-34 32 -45 27 -49 -25 -4 -41 0 -53 22
-79 27 -31 44 -68 54 -116 5 -23 12 -28 36 -28 26 0 30 3 30 29 0 16 -5 42
-11 57 -9 26 -7 31 27 59 33 28 37 35 30 65 -7 36 -52 120 -64 120 -5 0 -18
-23 -30 -52z"/>
<path d="M200 2162 c-56 -57 -65 -189 -18 -274 40 -72 112 -77 151 -10 24 42
33 143 17 201 -14 51 -67 111 -100 111 -12 0 -34 -13 -50 -28z"/>
<path d="M85 2148 c-2 -7 -5 -26 -7 -43 -3 -28 -5 -30 -40 -27 l-38 3 0 -96
c0 -60 4 -95 10 -95 6 0 24 7 39 15 l29 14 11 -44 c6 -25 15 -45 20 -45 6 0
19 13 30 29 17 24 19 34 10 62 -5 19 -9 68 -8 110 1 57 -2 82 -16 102 -19 29
-33 34 -40 15z"/>
<path d="M408 2002 c-23 -3 -28 -8 -28 -31 0 -36 -26 -110 -46 -133 -13 -13
-15 -28 -10 -62 9 -58 23 -67 51 -32 l22 28 24 -43 c13 -23 29 -44 35 -46 11
-4 34 42 54 110 14 44 6 58 -41 78 -31 12 -31 13 -25 70 4 31 3 59 -1 61 -4 2
-20 2 -35 0z"/>
<path d="M154 1848 c-4 -7 -13 -22 -21 -33 -11 -18 -9 -26 14 -59 l26 -39 -17
-54 c-16 -51 -16 -56 -1 -73 23 -25 75 -49 92 -43 11 4 14 21 11 69 l-3 64 33
6 c36 7 36 8 21 70 -11 41 -13 44 -46 44 -26 0 -42 8 -63 30 -31 34 -36 35
-46 18z"/>
</g>
</svg>
